<svg width="169" height="46" viewBox="0 0 169 46" fill="none" xmlns="http://www.w3.org/2000/svg">
<path d="M58.633 17.5551C58.633 13.266 62.1849 10.2838 67.3452 10.2838C72.3045 10.2838 75.4543 13.0315 75.5883 17.4546H71.2992C71.1987 15.3436 69.6908 14.1037 67.2782 14.1037C64.631 14.1037 62.9221 15.3771 62.9221 17.4211C62.9221 19.1635 63.8603 20.1353 65.9044 20.6044L69.7578 21.4421C73.9464 22.3468 75.9904 24.4914 75.9904 28.1438C75.9904 32.701 72.4385 35.6497 67.0436 35.6497C61.8163 35.6497 58.3984 32.8685 58.2979 28.4789H62.587C62.6205 30.5564 64.2959 31.7962 67.0436 31.7962C69.8919 31.7962 71.7013 30.5564 71.7013 28.5124C71.7013 26.8705 70.8636 25.8987 68.8531 25.4631L64.9661 24.5919C60.8111 23.6872 58.633 21.3081 58.633 17.5551ZM79.2674 42.8876V18.6609H83.0539L83.322 21.174C84.3272 19.2641 86.5053 18.1583 89.0184 18.1583C93.6761 18.1583 96.7589 21.5426 96.7589 26.7365C96.7589 31.8968 93.9442 35.6497 89.0184 35.6497C86.5388 35.6497 84.3942 34.678 83.3555 33.0025V42.8876H79.2674ZM83.389 26.9375C83.389 29.9198 85.232 31.9638 88.0467 31.9638C90.9284 31.9638 92.6373 29.8863 92.6373 26.9375C92.6373 23.9888 90.9284 21.8777 88.0467 21.8777C85.232 21.8777 83.389 23.9552 83.389 26.9375ZM104.102 35.2141H100.014V10.2838H104.135V20.8054C105.174 19.197 107.118 18.1583 109.497 18.1583C113.585 18.1583 115.729 20.7384 115.729 25.0275V35.2141H111.641V25.9993C111.641 23.2181 110.268 21.8777 108.19 21.8777C105.61 21.8777 104.102 23.6872 104.102 26.1668V35.2141ZM127.151 35.6497C122.226 35.6497 118.774 32.0643 118.774 26.9375C118.774 21.7437 122.159 18.1583 127.017 18.1583C131.977 18.1583 135.126 21.4756 135.126 26.6359V27.8757L122.661 27.9093C122.963 30.8245 124.504 32.2989 127.218 32.2989C129.463 32.2989 130.938 31.4276 131.407 29.8527H135.193C134.49 33.4717 131.474 35.6497 127.151 35.6497ZM127.051 21.5091C124.638 21.5091 123.164 22.816 122.762 25.2956H131.072C131.072 23.017 129.497 21.5091 127.051 21.5091ZM148.786 18.5939V22.3803H147.278C144.329 22.3803 142.486 23.9552 142.486 27.1721V35.2141H138.398V18.6944H142.252L142.486 21.107C143.19 19.4651 144.765 18.3593 146.976 18.3593C147.546 18.3593 148.116 18.4263 148.786 18.5939ZM158.402 35.6497C153.476 35.6497 150.025 32.0643 150.025 26.9375C150.025 21.7437 153.409 18.1583 158.268 18.1583C163.227 18.1583 166.377 21.4756 166.377 26.6359V27.8757L153.912 27.9093C154.213 30.8245 155.755 32.2989 158.469 32.2989C160.714 32.2989 162.188 31.4276 162.658 29.8527H166.444C165.74 33.4717 162.725 35.6497 158.402 35.6497ZM158.301 21.5091C155.889 21.5091 154.414 22.816 154.012 25.2956H162.322C162.322 23.017 160.748 21.5091 158.301 21.5091Z" fill="white"/>
<circle cx="21.7832" cy="23.9097" r="21.0625" fill="#0D00DF"/>
<path d="M24.292 22.4639L31.5755 11.0532H18.0121L8.92676 25.2868H19.2288L11.9458 36.6975H25.509L34.5943 22.4639H24.292ZM19.5923 13.9363H26.3148L20.9102 22.4037H14.1875L19.5923 13.9363ZM23.9287 33.8144H17.2062L22.6108 25.347H29.3333L23.9287 33.8144Z" fill="white"/>
</svg>
