<svg width="320" height="320" viewBox="0 0 320 320" fill="none" xmlns="http://www.w3.org/2000/svg">
<rect width="320" height="320" rx="160" fill="#0C00DF"/>
<path d="M156.121 193.475L77.2935 148.707V108.01L161.443 59.4255L243.063 106.549L238.004 115.311L161.443 71.1098L87.4115 113.85V142.818L161.117 184.678L156.121 193.475Z" fill="white"/>
<path d="M158.62 260.823L77 213.699L82.059 204.937L158.62 249.138L232.652 206.398V177.406L156.091 133.204L161.15 124.442L242.77 171.563V212.238L158.62 260.823Z" fill="white"/>
<path d="M235.133 170.612L126.388 232.75L131.408 241.535L240.153 179.397L235.133 170.612Z" fill="white"/>
<path d="M208.915 154.24L96.8338 218.55L101.87 227.326L213.951 163.016L208.915 154.24Z" fill="white"/>
<path d="M187.118 77.4022L78.375 139.539L83.3945 148.324L192.137 86.1866L187.118 77.4022Z" fill="white"/>
<path d="M214.649 93.1185L104.772 155.245L109.752 164.053L219.629 101.926L214.649 93.1185Z" fill="white"/>
</svg>
